<?xml version="1.0" standalone="no"?>
<!DOCTYPE svg PUBLIC "-//W3C//DTD SVG 20010904//EN"
 "http://www.w3.org/TR/2001/REC-SVG-20010904/DTD/svg10.dtd">
<svg version="1.0" xmlns="http://www.w3.org/2000/svg"
 width="700.000000pt" height="700.000000pt" viewBox="0 0 700.000000 700.000000"
 preserveAspectRatio="xMidYMid meet">
<metadata>
Created by potrace 1.14, written by Peter Selinger 2001-2017
</metadata>
<g transform="translate(0.000000,700.000000) scale(0.100000,-0.100000)"
fill="#000000" stroke="none">
<path d="M3285 5210 c-237 -27 -431 -82 -608 -172 -382 -194 -595 -491 -651
-905 l-6 -43 555 0 c436 0 556 3 559 13 2 6 9 30 15 52 25 95 105 174 215 212
74 26 281 26 351 -1 122 -47 185 -127 185 -238 0 -74 -17 -114 -65 -157 -86
-75 -241 -112 -625 -146 -457 -41 -703 -109 -925 -257 -171 -114 -311 -313
-359 -510 -40 -164 -45 -403 -11 -563 65 -307 272 -539 572 -641 160 -54 230
-65 445 -71 278 -8 433 20 615 110 150 73 300 215 380 357 49 88 53 75 53
-185 l0 -235 565 0 566 0 -3 1223 -3 1222 -22 77 c-49 174 -142 327 -276 455
-207 198 -472 319 -842 384 -127 23 -545 34 -680 19z m623 -2117 l-3 -198 -32
-68 c-42 -89 -125 -175 -211 -220 -83 -43 -118 -54 -209 -67 -147 -20 -286 20
-361 105 -49 56 -66 114 -60 204 7 93 44 161 121 217 76 56 139 79 305 109
175 32 279 58 367 89 39 13 74 25 78 25 5 1 7 -88 5 -196z"/>
</g>
</svg>
