<svg width="100" height="100" viewBox="0 0 100 100" fill="none" xmlns="http://www.w3.org/2000/svg">
<rect width="100" height="100" fill="#151718"/>
<path d="M24.8466 57.7443H23L28.3409 43.1989H30.1591L35.5 57.7443H33.6534L29.3068 45.5H29.1932L24.8466 57.7443ZM25.5284 52.0625H32.9716V53.625H25.5284V52.0625Z" fill="white"/>
<path d="M54.4844 57.7443L53.3906 56.6506L57.8935 52.1619H38.5043V50.5994H57.8935L53.3906 46.0966L54.4844 45.017L60.848 51.3807L54.4844 57.7443Z" fill="white"/>
<path d="M76.2866 47.7443H74.5252C74.421 47.2377 74.2388 46.7926 73.9783 46.4091C73.7227 46.0256 73.4102 45.7036 73.0408 45.4432C72.6763 45.178 72.2714 44.9792 71.8263 44.8466C71.3813 44.714 70.9173 44.6477 70.4343 44.6477C69.5536 44.6477 68.7558 44.8703 68.0408 45.3153C67.3306 45.7604 66.7648 46.4162 66.3434 47.2827C65.9267 48.1491 65.7184 49.2121 65.7184 50.4716C65.7184 51.7311 65.9267 52.794 66.3434 53.6605C66.7648 54.527 67.3306 55.1828 68.0408 55.6278C68.7558 56.0729 69.5536 56.2955 70.4343 56.2955C70.9173 56.2955 71.3813 56.2292 71.8263 56.0966C72.2714 55.964 72.6763 55.7675 73.0408 55.5071C73.4102 55.242 73.7227 54.9176 73.9783 54.5341C74.2388 54.1458 74.421 53.7008 74.5252 53.1989H76.2866C76.154 53.9422 75.9125 54.6075 75.5621 55.1946C75.2118 55.7817 74.7762 56.2813 74.2553 56.6932C73.7345 57.1004 73.1497 57.4105 72.5011 57.6236C71.8571 57.8366 71.1682 57.9432 70.4343 57.9432C69.1938 57.9432 68.0906 57.6402 67.1246 57.0341C66.1587 56.428 65.3988 55.5663 64.8448 54.4489C64.2908 53.3314 64.0138 52.0057 64.0138 50.4716C64.0138 48.9375 64.2908 47.6117 64.8448 46.4943C65.3988 45.3769 66.1587 44.5152 67.1246 43.9091C68.0906 43.303 69.1938 43 70.4343 43C71.1682 43 71.8571 43.1065 72.5011 43.3196C73.1497 43.5327 73.7345 43.8452 74.2553 44.2571C74.7762 44.6643 75.2118 45.1615 75.5621 45.7486C75.9125 46.331 76.154 46.9962 76.2866 47.7443Z" fill="white"/>
</svg>
