<svg width="500" height="500" viewBox="0 0 500 500" fill="none" xmlns="http://www.w3.org/2000/svg">
<rect width="500" height="500" rx="24" fill="#FCFCFC"/>
<path d="M213.125 373.211C197.813 373.211 184.271 370.718 172.5 365.732C160.833 360.641 151.667 352.954 145 342.669C138.333 332.384 135 319.294 135 303.4C135 290.31 137.24 279.142 141.719 269.896C146.198 260.546 152.448 252.911 160.469 246.989C168.49 241.068 177.813 236.548 188.438 233.432C199.167 230.315 210.729 228.29 223.125 227.355C236.563 226.316 247.344 225.069 255.469 223.615C263.698 222.056 269.635 219.927 273.281 217.226C276.927 214.421 278.75 210.733 278.75 206.162V205.538C278.75 199.305 276.354 194.526 271.563 191.202C266.771 187.878 260.625 186.215 253.125 186.215C244.896 186.215 238.177 188.033 232.969 191.669C227.865 195.202 224.792 200.656 223.75 208.032H144.375C145.417 193.487 150.052 180.086 158.281 167.827C166.615 155.465 178.75 145.596 194.688 138.22C210.625 130.74 230.521 127 254.375 127C271.563 127 286.979 129.026 300.625 133.077C314.271 137.025 325.885 142.583 335.469 149.751C345.052 156.815 352.344 165.126 357.344 174.684C362.448 184.138 365 194.422 365 205.538V369.472H284.375V335.812H282.5C277.708 344.746 271.875 351.967 265 357.473C258.229 362.979 250.469 366.978 241.719 369.472C233.073 371.965 223.542 373.211 213.125 373.211ZM241.25 318.983C247.813 318.983 253.958 317.632 259.688 314.931C265.521 312.23 270.26 308.334 273.906 303.244C277.552 298.153 279.375 291.972 279.375 284.7V264.754C277.083 265.689 274.635 266.572 272.031 267.403C269.531 268.234 266.823 269.013 263.906 269.74C261.094 270.468 258.073 271.143 254.844 271.766C251.719 272.389 248.438 272.961 245 273.48C238.333 274.519 232.865 276.233 228.594 278.623C224.427 280.908 221.302 283.765 219.219 287.193C217.24 290.518 216.25 294.258 216.25 298.413C216.25 305.062 218.594 310.152 223.281 313.684C227.969 317.217 233.958 318.983 241.25 318.983Z" fill="#313233"/>
</svg>
