<svg width="500" height="500" viewBox="0 0 500 500" fill="none" xmlns="http://www.w3.org/2000/svg">
<rect width="500" height="500" rx="24" fill="#FCFCFC"/>
<path d="M226.253 309C216.599 309 208.062 307.43 200.641 304.291C193.286 301.086 187.507 296.247 183.304 289.772C179.101 283.297 177 275.057 177 265.051C177 256.81 178.412 249.78 181.236 243.959C184.06 238.073 188 233.266 193.056 229.538C198.113 225.81 203.99 222.965 210.689 221.003C217.453 219.041 224.742 217.766 232.557 217.177C241.029 216.523 247.825 215.738 252.948 214.823C258.136 213.842 261.879 212.501 264.177 210.801C266.476 209.035 267.625 206.713 267.625 203.835V203.443C267.625 199.519 266.115 196.511 263.094 194.418C260.073 192.325 256.198 191.278 251.47 191.278C246.282 191.278 242.046 192.423 238.763 194.712C235.545 196.936 233.608 200.369 232.951 205.013H182.91C183.567 195.857 186.489 187.42 191.677 179.703C196.931 171.92 204.582 165.707 214.629 161.063C224.677 156.354 237.22 154 252.258 154C263.094 154 272.813 155.275 281.416 157.826C290.019 160.311 297.341 163.81 303.382 168.323C309.424 172.77 314.021 178.002 317.173 184.019C320.391 189.97 322 196.445 322 203.443V306.646H271.171V285.456H269.989C266.968 291.08 263.291 295.626 258.957 299.092C254.688 302.558 249.796 305.076 244.279 306.646C238.829 308.215 232.82 309 226.253 309ZM243.984 274.861C248.121 274.861 251.995 274.011 255.607 272.31C259.285 270.61 262.273 268.157 264.571 264.953C266.87 261.748 268.019 257.857 268.019 253.278V240.722C266.574 241.31 265.031 241.866 263.389 242.389C261.813 242.912 260.106 243.403 258.267 243.861C256.494 244.319 254.589 244.744 252.554 245.136C250.584 245.528 248.515 245.888 246.348 246.215C242.145 246.869 238.697 247.948 236.005 249.453C233.378 250.891 231.408 252.69 230.094 254.848C228.847 256.941 228.223 259.295 228.223 261.911C228.223 266.097 229.7 269.302 232.656 271.525C235.611 273.749 239.387 274.861 243.984 274.861Z" fill="#313233"/>
</svg>
