<svg width="1000" height="1000" viewBox="0 0 1000 1000" fill="none" xmlns="http://www.w3.org/2000/svg">
    <path d="M282.885 383.336C259.517 360.656 226.785 338.07 238.47 370.373C246.03 392.366 275.584 413.672 300.326 420.545C311.323 394.428 323.007 361.438 307.887 342.881C301.014 334.633 289.071 376.463 282.885 383.336Z" stroke-width="54" stroke-linecap="round" stroke-linejoin="round"/>
    <path d="M427.905 467.187C414.503 417.931 387.08 305.191 384.605 248.283C381.512 177.147 395.602 128.693 465.706 122.507C535.811 116.321 551.275 181.958 547.151 294.332L541.999 521.769" stroke-width="36" stroke-linecap="round"/>
    <path d="M687.016 515.643C715.883 439.696 729.026 402.107 745.437 363.063C783.582 255.844 802.773 246.831 796.984 203.953C785.987 122.508 695.264 142.096 668.459 160.653C641.655 179.21 620.005 199.829 589.42 334.54L550.934 525.894" stroke-width="36" stroke-linecap="round"/>
    <path d="M489.418 800.53C463.3 758.261 473.954 687.813 531 652.074M603.509 636.953C575.674 648.294 505.363 661.902 446.805 625.613C373.608 580.251 404.193 512.896 446.805 514.271C489.418 515.645 500.777 538.171 595.949 517.017C639.249 507.393 769.836 503.959 773.959 652.074C777.681 785.749 609.008 900.532 446.805 875.102C317.044 854.758 271.544 760.323 265.015 715.649" stroke-width="36" stroke-linecap="round"/>
    <path d="M340.274 680.935C330.766 697.888 301.579 726.709 260.891 706.365C210.031 680.935 205.563 640.384 202.814 602.239C200.065 564.094 213.468 508.424 260.891 496.395C284.03 490.526 303.045 503.039 309.345 508.423M473.954 640.729C472.808 660.432 459.52 699.562 415.533 698.462C360.549 697.087 318.281 686.088 303.847 602.239C289.414 518.39 324.123 462.375 381.168 457.564C426.805 453.715 455.626 493.991 464.331 514.61" stroke-width="36" stroke-linecap="round"/>
    <style>
        path { stroke: #000; }
        path:first-of-type { fill: #000; }
        @media (prefers-color-scheme: dark) {
            path { stroke: #FFF; }
            path:first-of-type { fill: #FFF; }
        }
    </style>
</svg>
