<?xml version="1.0" standalone="no"?>
<!DOCTYPE svg PUBLIC "-//W3C//DTD SVG 20010904//EN"
 "http://www.w3.org/TR/2001/REC-SVG-20010904/DTD/svg10.dtd">
<svg version="1.0" xmlns="http://www.w3.org/2000/svg"
 width="700.000000pt" height="700.000000pt" viewBox="0 0 700.000000 700.000000"
 preserveAspectRatio="xMidYMid meet">
<metadata>
Created by potrace 1.14, written by Peter Selinger 2001-2017
</metadata>
<g transform="translate(0.000000,700.000000) scale(0.100000,-0.100000)"
fill="#000000" stroke="none">
<path d="M0 3500 l0 -3500 3500 0 3500 0 0 3500 0 3500 -3500 0 -3500 0 0
-3500z m5043 475 c81 -21 133 -50 186 -104 46 -45 93 -127 105 -183 l6 -28
-65 0 c-52 0 -65 3 -65 15 0 30 -40 93 -81 129 -59 50 -123 69 -217 64 -162
-8 -269 -112 -303 -294 -14 -71 -6 -210 15 -278 21 -68 79 -150 132 -185 157
-103 393 -38 447 124 l14 40 63 3 62 3 -6 -28 c-51 -206 -256 -337 -473 -303
-175 28 -303 147 -357 330 -42 140 -27 336 34 465 90 188 298 283 503 230z
m-2747 -500 c101 -275 184 -503 184 -507 0 -5 -28 -8 -63 -8 l-62 0 -51 143
-50 142 -206 3 -205 2 -50 -142 -50 -143 -66 -3 -66 -3 13 38 c75 208 350 952
358 966 8 15 20 17 70 15 l60 -3 184 -500z m1742 -292 l-222 -223 -38 37 -38
37 157 158 158 158 -678 0 -677 0 0 55 0 55 677 0 678 0 -158 158 -157 157 37
38 38 37 222 -222 223 -223 -222 -222z"/>
<path d="M1990 3663 c-29 -81 -65 -183 -81 -225 l-28 -78 165 0 c90 0 164 2
164 4 0 11 -153 432 -159 439 -5 5 -32 -58 -61 -140z"/>
</g>
</svg>
