<?xml version="1.0" standalone="no"?>
<!DOCTYPE svg PUBLIC "-//W3C//DTD SVG 20010904//EN"
 "http://www.w3.org/TR/2001/REC-SVG-20010904/DTD/svg10.dtd">
<svg version="1.0" xmlns="http://www.w3.org/2000/svg"
 width="1080.000000pt" height="1080.000000pt" viewBox="0 0 1080.000000 1080.000000"
 preserveAspectRatio="xMidYMid meet">
<metadata>
Created by potrace 1.14, written by Peter Selinger 2001-2017
</metadata>
<g transform="translate(0.000000,1080.000000) scale(0.100000,-0.100000)"
fill="#000000" stroke="none">
<path d="M0 5400 l0 -5400 5400 0 5400 0 0 5400 0 5400 -5400 0 -5400 0 0
-5400z m4511 2169 c21 -14 45 -76 149 -380 67 -200 126 -367 129 -371 4 -4 62
158 129 361 82 246 130 375 143 387 18 16 41 20 154 22 181 5 202 -7 145 -86
-16 -22 -32 -52 -35 -65 -4 -14 29 -212 75 -458 72 -384 85 -440 111 -482 16
-27 31 -58 35 -71 10 -43 -9 -47 -222 -44 l-199 3 -3 23 c-2 13 7 40 20 60 14
20 27 45 31 55 7 19 -93 627 -103 627 -3 0 -63 -165 -135 -367 -71 -201 -134
-372 -140 -379 -5 -7 -21 -16 -35 -19 -54 -13 -67 10 -225 414 -82 209 -151
379 -153 376 -7 -7 -92 -585 -92 -626 0 -24 10 -48 30 -75 59 -78 41 -94 -111
-94 -65 0 -124 3 -133 6 -24 9 -19 42 14 94 36 56 38 65 116 572 l58 377 -37
59 c-37 61 -40 87 -9 96 10 2 73 4 142 3 98 -2 132 -6 151 -18z m1463 -375 c3
-9 6 -43 6 -77 l1 -62 19 36 c41 79 114 119 216 119 93 0 154 -66 154 -168 0
-107 -39 -152 -131 -152 -51 0 -60 3 -82 29 -13 16 -28 46 -31 65 -9 45 -45
73 -75 57 -33 -18 -41 -75 -41 -298 l0 -212 45 -51 c84 -94 71 -101 -185 -98
-243 4 -243 3 -187 94 l37 59 0 203 0 202 -42 46 c-64 69 -55 82 112 160 141
66 174 75 184 48z m666 -532 c19 -9 45 -33 58 -52 20 -30 23 -44 20 -99 -4
-58 -7 -66 -40 -97 -64 -58 -158 -67 -239 -22 -51 28 -69 64 -69 136 0 51 4
65 27 93 15 17 41 38 58 45 44 19 143 17 185 -4z m-2966 -528 c14 -5 16 -38
16 -265 0 -142 2 -259 5 -259 3 0 22 11 43 24 142 93 366 35 443 -115 28 -57
38 -111 53 -317 14 -181 16 -192 47 -252 49 -95 50 -94 -176 -98 -235 -3 -244
1 -184 99 l32 51 -7 171 c-7 168 -19 285 -32 323 -4 10 -18 31 -32 47 -35 37
-101 38 -137 3 -40 -40 -46 -89 -43 -330 l3 -223 38 -48 c70 -90 60 -95 -184
-95 -248 0 -261 7 -185 104 l31 38 3 421 c2 291 -1 430 -8 448 -6 15 -25 39
-41 55 -30 29 -38 67 -16 81 9 6 307 142 314 143 1 0 8 -3 17 -6z m2548 -18
c4 -6 8 -261 8 -567 l0 -556 31 -42 c20 -28 29 -52 27 -69 l-3 -27 -149 0
c-157 0 -148 -2 -173 44 -1 2 -14 -6 -30 -17 -117 -82 -318 -56 -445 57 -125
111 -163 347 -83 515 35 75 115 152 194 189 51 24 82 32 146 35 75 4 104 -2
178 -33 16 -7 17 3 17 119 l0 127 -45 48 c-48 51 -57 84 -27 100 38 20 317 98
332 93 8 -3 18 -10 22 -16z m-3372 -60 c91 -17 176 -53 246 -106 145 -109 134
-300 -17 -300 -86 0 -121 31 -187 164 -47 93 -83 130 -142 146 -44 12 -106 1
-146 -25 -71 -46 -71 -198 -1 -273 33 -35 117 -75 252 -117 199 -62 270 -105
320 -197 28 -49 30 -60 30 -158 0 -96 -2 -109 -27 -151 -53 -90 -161 -161
-286 -188 -74 -15 -234 -13 -317 4 -185 39 -334 166 -335 287 0 52 17 84 55
103 87 41 151 2 234 -142 64 -112 140 -163 240 -163 47 0 109 29 133 62 31 44
29 123 -5 180 -32 55 -101 94 -242 136 -137 41 -197 65 -255 102 -169 109
-188 388 -36 528 113 104 290 143 486 108z m2114 -420 c89 -44 156 -112 185
-191 12 -32 31 -136 45 -249 26 -205 38 -243 81 -266 17 -9 25 -21 23 -34 -5
-36 -53 -50 -168 -51 -114 0 -162 15 -175 55 -6 20 -8 19 -41 -9 -42 -38 -98
-53 -190 -53 -134 0 -244 52 -288 137 -30 57 -29 174 1 231 45 84 132 133 252
141 60 4 89 1 136 -15 33 -11 61 -19 62 -18 2 1 -4 45 -12 97 -23 153 -43 189
-106 189 -29 0 -43 -6 -63 -31 -14 -17 -29 -43 -32 -57 -11 -44 -42 -100 -66
-116 -13 -9 -43 -16 -71 -16 -41 0 -53 5 -79 30 -28 28 -30 35 -26 84 6 67 34
107 96 137 73 36 147 49 259 45 95 -2 108 -5 177 -40z m2015 33 c128 -29 269
-144 311 -254 47 -123 34 -275 -31 -377 -189 -294 -677 -264 -828 52 -23 49
-26 67 -26 170 0 105 2 120 28 171 50 104 156 192 275 230 64 20 201 25 271 8z
m772 -9 c27 -15 24 -41 -11 -85 -16 -21 -30 -47 -30 -59 0 -34 117 -372 123
-356 3 8 36 119 73 245 36 127 71 236 76 243 7 7 37 12 83 12 46 0 76 -5 83
-12 5 -7 41 -122 78 -255 44 -152 72 -236 77 -228 16 29 107 306 107 326 0 28
-17 59 -51 91 -34 31 -37 63 -10 78 21 11 238 14 265 4 27 -10 19 -57 -15 -90
-50 -48 -63 -76 -175 -389 -59 -165 -114 -308 -122 -317 -21 -25 -132 -25
-154 0 -9 9 -46 117 -84 240 -37 122 -70 222 -73 222 -3 0 -37 -100 -75 -223
-37 -122 -75 -230 -84 -239 -10 -12 -30 -18 -59 -18 -79 0 -60 -33 -252 434
-57 136 -104 237 -126 265 -45 58 -54 90 -30 108 23 16 355 19 386 3z m-3663
-1062 c9 -9 12 -82 12 -265 0 -139 2 -253 5 -253 3 0 22 11 43 24 113 75 282
56 385 -43 77 -73 91 -121 111 -391 10 -130 20 -199 30 -220 69 -131 78 -124
-159 -128 -235 -3 -246 3 -183 101 l32 50 -12 216 c-13 235 -20 275 -58 321
-45 53 -128 38 -165 -30 -10 -19 -15 -85 -17 -260 l-4 -235 43 -64 c64 -96 65
-95 -181 -99 -253 -3 -263 2 -192 93 l37 48 3 416 c1 229 0 426 -3 439 -3 13
-22 39 -41 59 -26 25 -34 42 -32 61 3 27 21 40 107 76 20 9 77 33 126 55 104
46 97 45 113 29z m1068 -53 c45 -27 84 -90 84 -138 0 -61 -53 -133 -113 -156
-39 -15 -131 -14 -170 3 -80 33 -125 133 -94 208 31 73 89 107 186 108 51 0
73 -5 107 -25z m-2756 -29 c0 -2 2 -11 5 -19 4 -8 -10 -33 -30 -56 -21 -26
-35 -54 -35 -69 0 -26 225 -648 240 -666 9 -9 170 477 170 511 0 53 -45 148
-96 205 -91 98 -90 99 197 96 214 -3 234 -5 237 -21 2 -10 -13 -34 -37 -57
-28 -28 -41 -49 -41 -68 1 -41 187 -679 194 -662 16 42 206 653 206 663 0 7
-18 34 -40 61 -23 27 -38 56 -35 63 3 8 5 17 5 19 0 2 72 4 160 4 l160 0 0
-28 c0 -19 -11 -39 -36 -63 -20 -18 -40 -42 -46 -52 -5 -10 -85 -239 -178
-509 -127 -372 -175 -497 -194 -516 -20 -21 -35 -26 -75 -26 -84 0 -88 6 -202
357 -55 170 -102 307 -104 305 -2 -1 -47 -133 -100 -293 -54 -159 -103 -302
-110 -316 -21 -40 -42 -52 -91 -52 -61 0 -80 22 -137 158 -25 61 -107 255
-182 433 -74 178 -132 329 -129 335 4 7 3 9 -1 4 -5 -4 -20 19 -33 50 -13 32
-46 81 -73 110 -45 48 -59 80 -42 96 7 7 473 10 473 3z m2790 -711 c3 -187 7
-340 8 -341 16 -9 72 -95 72 -111 0 -32 -17 -34 -240 -31 l-195 3 -3 28 c-2
19 6 40 25 65 l28 37 3 205 3 205 -30 45 c-52 77 -51 80 117 165 101 51 156
74 177 72 l30 -2 5 -340z m692 334 c181 -39 283 -183 186 -264 -23 -19 -41
-25 -80 -25 -44 0 -55 4 -82 33 -17 18 -39 59 -49 90 -22 69 -66 112 -106 102
-37 -9 -49 -22 -62 -64 -25 -87 38 -159 183 -206 113 -38 148 -57 191 -104
115 -128 45 -314 -141 -371 -81 -25 -259 -28 -347 -5 -121 31 -195 100 -195
181 0 62 31 95 96 101 83 8 132 -30 163 -127 20 -62 51 -91 103 -97 40 -5 50
-2 72 20 21 21 26 36 26 73 0 42 -4 51 -40 85 -32 31 -61 45 -143 70 -172 53
-235 103 -258 204 -40 180 106 312 348 314 45 1 106 -4 135 -10z m656 -1 c7
-7 12 -25 12 -41 l0 -29 30 25 c53 45 110 60 208 55 107 -5 173 -33 257 -109
66 -61 102 -133 114 -229 32 -252 -106 -461 -331 -500 -72 -13 -154 -3 -209
25 l-31 16 4 -123 3 -123 38 -49 c69 -91 60 -96 -179 -96 -106 0 -199 3 -208
6 -25 10 -18 55 14 98 l30 40 0 387 0 388 -40 46 c-45 51 -48 65 -22 87 27 25
255 137 278 137 11 1 25 -4 32 -11z m1329 -17 c97 -43 164 -143 149 -223 -10
-52 -26 -64 -283 -207 -62 -35 -113 -65 -113 -67 0 -17 39 -59 74 -78 85 -49
195 -39 266 24 40 36 73 36 78 1 11 -72 -95 -204 -191 -239 -75 -28 -142 -35
-222 -22 -144 23 -240 92 -302 218 -38 76 -38 76 -38 201 0 115 2 131 26 181
50 105 136 181 254 223 73 26 230 19 302 -12z m613 -51 c4 -67 6 -72 17 -48
39 88 122 133 229 126 61 -4 69 -7 100 -40 44 -49 60 -107 45 -174 -7 -28 -21
-61 -31 -72 -28 -30 -87 -44 -131 -32 -45 13 -64 34 -78 86 -13 49 -31 67 -63
62 -44 -6 -53 -46 -56 -256 -2 -107 -1 -210 3 -229 4 -20 23 -53 46 -78 28
-30 40 -51 37 -67 l-3 -23 -212 -3 c-198 -2 -213 -1 -222 16 -11 20 2 52 39
99 19 24 20 40 20 235 l0 208 -41 45 c-59 64 -51 83 49 131 42 20 104 50 137
66 33 16 71 27 85 26 24 -3 25 -7 30 -78z"/>
<path d="M5724 5581 c-50 -31 -69 -93 -69 -231 1 -179 52 -355 120 -408 53
-42 124 -21 151 44 18 43 20 424 2 475 -40 118 -126 168 -204 120z"/>
<path d="M4741 5234 c-66 -84 -10 -314 76 -314 69 0 98 53 90 165 -5 84 -14
114 -50 153 -30 32 -89 31 -116 -4z"/>
<path d="M6745 5576 c-37 -37 -48 -97 -42 -221 12 -242 98 -435 196 -435 20 0
46 7 58 15 53 37 67 199 33 365 -25 120 -88 253 -133 281 -43 26 -83 24 -112
-5z"/>
<path d="M6641 4054 c-44 -31 -51 -68 -51 -282 0 -234 10 -285 70 -344 32 -33
44 -38 82 -38 53 0 89 29 110 88 17 50 14 245 -6 347 -20 100 -75 217 -111
233 -36 16 -66 15 -94 -4z"/>
<path d="M7600 4042 c-39 -40 -54 -100 -46 -197 6 -88 14 -125 26 -125 13 0
153 89 175 111 28 27 26 109 -3 170 -35 73 -102 91 -152 41z"/>
</g>
</svg>
