<?xml version="1.0" standalone="no"?>
<!DOCTYPE svg PUBLIC "-//W3C//DTD SVG 20010904//EN"
 "http://www.w3.org/TR/2001/REC-SVG-20010904/DTD/svg10.dtd">
<svg version="1.0" xmlns="http://www.w3.org/2000/svg"
 width="700.000000pt" height="700.000000pt" viewBox="0 0 700.000000 700.000000"
 preserveAspectRatio="xMidYMid meet">
<metadata>
Created by potrace 1.14, written by Peter Selinger 2001-2017
</metadata>
<g transform="translate(0.000000,700.000000) scale(0.100000,-0.100000)"
fill="#000000" stroke="none">
<path d="M3271 4824 c-204 -34 -370 -114 -497 -239 -115 -113 -186 -253 -208
-407 l-7 -48 350 0 350 0 12 39 c31 103 125 156 264 149 61 -3 92 -10 125 -29
81 -44 110 -143 64 -214 -35 -54 -148 -84 -412 -110 -196 -19 -255 -29 -362
-62 -316 -95 -470 -295 -470 -613 0 -190 48 -320 159 -431 138 -138 365 -203
618 -179 228 21 404 121 494 278 42 73 49 58 49 -103 l0 -145 355 0 356 0 -4
778 c-3 864 2 800 -74 945 -44 84 -151 195 -236 245 -124 74 -285 129 -442
152 -100 14 -385 10 -484 -6z m463 -1473 c-9 -25 -35 -65 -58 -89 -124 -135
-369 -147 -453 -23 -27 40 -32 135 -9 179 40 75 108 110 291 146 72 14 155 34
185 44 l55 19 3 -116 c2 -90 -1 -126 -14 -160z"/>
</g>
</svg>
